HIERARCHY
ROOT hip
{
  OFFSET 0 0 0
  CHANNELS 6 Xposition Yposition Zposition Zrotation Yrotation Xrotation
  JOINT abdomen
  {
    OFFSET 0 20.6881 -0.73152
    CHANNELS 3 Zrotation Xrotation Yrotation
    JOINT chest
    {
      OFFSET 0 11.7043 -0.48768
      CHANNELS 3 Zrotation Xrotation Yrotation
      JOINT neck
      {
        OFFSET 0 22.1894 -2.19456
        CHANNELS 3 Zrotation Xrotation Yrotation
        JOINT head
        {
          OFFSET -0.24384 7.07133 1.2192
          CHANNELS 3 Zrotation Xrotation Yrotation
          JOINT leftEye
          {
            OFFSET 4.14528 8.04674 8.04672
            CHANNELS 3 Zrotation Xrotation Yrotation
            End Site
            {
              OFFSET 1 0 0
            }
          }
          JOINT rightEye
          {
            OFFSET -3.6576 8.04674 8.04672
            CHANNELS 3 Zrotation Xrotation Yrotation
            End Site
            {
              OFFSET 1 0 0
            }
          }
        }
      }
      JOINT rCollar
      {
        OFFSET -2.68224 19.2634 -4.8768
        CHANNELS 3 Zrotation Xrotation Yrotation
        JOINT rShldr
        {
          OFFSET -8.77824 -1.95073 1.46304
          CHANNELS 3 Zrotation Xrotation Yrotation
          JOINT rForeArm
          {
            OFFSET -28.1742 -1.7115 0.48768
            CHANNELS 3 Zrotation Xrotation Yrotation
            JOINT rHand
            {
              OFFSET -22.5879 0.773209 7.07136
              CHANNELS 3 Zrotation Xrotation Yrotation
              JOINT rThumb1
              {
                OFFSET -1.2192 -0.487915 3.41376
                CHANNELS 3 Zrotation Xrotation Yrotation
                JOINT rThumb2
                {
                  OFFSET -3.37035 -0.52449 3.41376
                  CHANNELS 3 Zrotation Xrotation Yrotation
                  End Site
                  {
                    OFFSET -1.78271 -1.18214 1.43049
                  }
                }
              }
              JOINT rIndex1
              {
                OFFSET -7.75947 0.938293 5.60832
                CHANNELS 3 Zrotation Xrotation Yrotation
                JOINT rIndex2
                {
                  OFFSET -2.54057 -0.884171 1.56538
                  CHANNELS 3 Zrotation Xrotation Yrotation
                  End Site
                  {
                    OFFSET -1.62519 -0.234802 1.16502
                  }
                }
              }
              JOINT rMid1
              {
                OFFSET -8.24714 1.18213 3.41376
                CHANNELS 3 Zrotation Xrotation Yrotation
                JOINT rMid2
                {
                  OFFSET -3.10165 -0.590103 1.0647
                  CHANNELS 3 Zrotation Xrotation Yrotation
                  End Site
                  {
                    OFFSET -2.48547 -0.328903 0.83742
                  }
                }
              }
              JOINT rRing1
              {
                OFFSET -8.82822 0.546677 1.51678
                CHANNELS 3 Zrotation Xrotation Yrotation
                JOINT rRing2
                {
                  OFFSET -2.60934 -0.819778 -0.0198488
                  CHANNELS 3 Zrotation Xrotation Yrotation
                  End Site
                  {
                    OFFSET -2.33842 -0.294052 0.168128
                  }
                }
              }
              JOINT rPinky1
              {
                OFFSET -8.27202 -0.0477905 -0.4584
                CHANNELS 3 Zrotation Xrotation Yrotation
                JOINT rPinky2
                {
                  OFFSET -1.82734 -0.647385 -0.700984
                  CHANNELS 3 Zrotation Xrotation Yrotation
                  End Site
                  {
                    OFFSET -1.69225 -0.51767 -0.607171
                  }
                }
              }
            }
          }
        }
      }
      JOINT lCollar
      {
        OFFSET 2.68224 19.2634 -4.8768
        CHANNELS 3 Zrotation Xrotation Yrotation
        JOINT lShldr
        {
          OFFSET 8.77824 -1.95073 1.46304
          CHANNELS 3 Zrotation Xrotation Yrotation
          JOINT lForeArm
          {
            OFFSET 28.1742 -1.7115 0.48768
            CHANNELS 3 Zrotation Xrotation Yrotation
            JOINT lHand
            {
              OFFSET 22.5879 0.773209 7.07136
              CHANNELS 3 Zrotation Xrotation Yrotation
              JOINT lThumb1
              {
                OFFSET 1.2192 -0.487915 3.41376
                CHANNELS 3 Zrotation Xrotation Yrotation
                JOINT lThumb2
                {
                  OFFSET 3.37035 -0.52449 3.41376
                  CHANNELS 3 Zrotation Xrotation Yrotation
                  End Site
                  {
                    OFFSET 1.78271 -1.18214 1.43049
                  }
                }
              }
              JOINT lIndex1
              {
                OFFSET 7.75947 0.938293 5.60832
                CHANNELS 3 Zrotation Xrotation Yrotation
                JOINT lIndex2
                {
                  OFFSET 2.54057 -0.884171 1.56538
                  CHANNELS 3 Zrotation Xrotation Yrotation
                  End Site
                  {
                    OFFSET 1.62519 -0.234802 1.16502
                  }
                }
              }
              JOINT lMid1
              {
                OFFSET 8.24714 1.18213 3.41376
                CHANNELS 3 Zrotation Xrotation Yrotation
                JOINT lMid2
                {
                  OFFSET 3.10165 -0.590103 1.0647
                  CHANNELS 3 Zrotation Xrotation Yrotation
                  End Site
                  {
                    OFFSET 2.48547 -0.328903 0.83742
                  }
                }
              }
              JOINT lRing1
              {
                OFFSET 8.82822 0.546677 1.51678
                CHANNELS 3 Zrotation Xrotation Yrotation
                JOINT lRing2
                {
                  OFFSET 2.60934 -0.819778 -0.0198488
                  CHANNELS 3 Zrotation Xrotation Yrotation
                  End Site
                  {
                    OFFSET 2.33842 -0.294052 0.168128
                  }
                }
              }
              JOINT lPinky1
              {
                OFFSET 8.27202 -0.0477905 -0.4584
                CHANNELS 3 Zrotation Xrotation Yrotation
                JOINT lPinky2
                {
                  OFFSET 1.82734 -0.647385 -0.700984
                  CHANNELS 3 Zrotation Xrotation Yrotation
                  End Site
                  {
                    OFFSET 1.69225 -0.51767 -0.607171
                  }
                }
              }
            }
          }
        }
      }
    }
  }
  JOINT rButtock
  {
    OFFSET -8.77824 4.35084 1.2192
    CHANNELS 3 Zrotation Xrotation Yrotation
    JOINT rThigh
    {
      OFFSET 0 -1.70687 -2.19456
      CHANNELS 3 Zrotation Xrotation Yrotation
      JOINT rShin
      {
        OFFSET 0 -36.8199 0.73152
        CHANNELS 3 Zrotation Xrotation Yrotation
        JOINT rFoot
        {
          OFFSET 0.73152 -45.1104 -5.12064
          CHANNELS 3 Zrotation Xrotation Yrotation
          End Site
          {
            OFFSET -1.1221 -3.69964 12.103
          }
        }
      }
    }
  }
  JOINT lButtock
  {
    OFFSET 8.77824 4.35084 1.2192
    CHANNELS 3 Zrotation Xrotation Yrotation
    JOINT lThigh
    {
      OFFSET 0 -1.70687 -2.19456
      CHANNELS 3 Zrotation Xrotation Yrotation
      JOINT lShin
      {
        OFFSET 0 -36.8199 0.73152
        CHANNELS 3 Zrotation Xrotation Yrotation
        JOINT lFoot
        {
          OFFSET -0.73152 -45.1104 -5.12064
          CHANNELS 3 Zrotation Xrotation Yrotation
          End Site
          {
            OFFSET 1.1221 -3.69964 12.103
          }
        }
      }
    }
  }
}
MOTION
Frames:	4
Frame Time:	0.03333
1.3453995808959007 22.95737862586975 0.2405711915344 -2.850064624596132 0.9279783154984933 2.0247741478439605 -1.65593133950199 6.048987137466189 1.4770841167456754 2.282155739450728 -5.790686885416055 0.7318802226936951 -2.1921682105792217 6.631053297213737 -0.9776447831001815 4.089412267891878 -8.092285185226046 -2.43191339997537 -0.22248104583550793 0.3244568240206429 0.05590057602427188 0.31517715825953435 0.45487090856813256 0.1663659858630418 0.28855067963644454 0.04783336222233313 0.20477129913259046 14.04598606112868 7.7191203612433394 4.748409409582218 -10.20978299303434 -8.782139414039213 17.11388761647132 -1.044259084466787 -1.5057188310673075 -2.8494936634702013 -0.5371351476747942 0.3540927480250638 0.20433956981206483 0.5985761143536439 -0.03932297319692368 -0.48727151172167477 0.41673054527339953 -0.21247405830928556 -0.2386772519668197 3.2374428587982247 4.168713325476665 0.5258450584201746 -0.44069095560351007 -0.14309891977496692 0.1694295658296305 1.0902065140654031 0.9378399347212282 0.12164835050078486 -0.21894870411648742 -0.2677562754300465 0.927668395664904 4.4855265274858285 0.46396290420962444 -0.4006031879825301 0.18089198395866063 -0.3218068173443837 -0.06154988951981289 1.8757383529372245 -0.889779522069845 0.042938517825814065 -0.29964890994449545 0.8149388981781939 -0.552695385821141 -15.081303574198275 9.600717949271377 -4.494078778100331 9.131678613682846 -8.861119452733009 -16.748100250565873 1.4637265078849517 -4.674810279293922 2.21119476972935 -0.4295724214909342 -0.20542060733077802 -0.5532050353271003 0.4211097637484355 0.14446778573417268 -0.7948262322283277 0.48654148189327673 0.2982717463726652 -0.22766013015516268 -3.8032158157241187 2.8769162326575675 -0.3689688733569251 0.29078756658962374 -0.3552149801222086 0.09571594983145795 -1.6397458188814695 0.07602384744365005 -0.11763405355845531 -0.3232508687453125 0.5119803080135776 0.20972143871291754 -4.6557771033980355 0.7837419024224549 -0.10429730879121205 0.13209013559657407 0.3759865458835694 0.6203129779437979 -1.3277255954006562 -0.7394934823798793 -0.32432086056747733 -0.19882237778828124 0.4249839217508608 -0.11782042967738938 -7.965078034576437 -12.272366079915729 -8.019261925262148 -2.6468013965477257 16.708486860927092 1.843790569981313 -3.0016862864339524 -4.66997407847473 -4.305398217373313 0.49480088814711465 0.20949480183047742 0.4792958251226568 7.119086108223604 -9.588610585193884 9.546756893507338 0.017692644549565997 17.25025405079792 -2.5278167264417535 2.963470524254085 -2.8375525718103147 3.7651814804440797
1.7773449420928955 47.31040000915527 0.5130765028297901 -3.7195165432006667 1.246866614354872 3.9724700377911506 -2.560297264152926 10.985340728005532 2.521827290869887 3.251364705317415 -8.539807717381745 0.9330133388555564 -4.482117836203169 12.376974695922705 -3.358380963006821 7.400643154397631 -18.080700893486625 -5.076780572327513 -0.15493505063721721 -0.07164687012443548 -0.04972056216630616 -0.01954693418751868 0.40071772705326 0.0806615992509416 0.05367789639817486 0.3447569199662877 0.16196138096224305 31.842901986111386 18.57249158920047 9.775025230663749 -18.403352199688857 -18.32856162827722 37.30053049146422 -2.3087371281531253 -4.398541507084777 -3.0419933671603134 -0.19756930487984836 -0.01964581184792519 -0.11776457420462602 -0.023177606618203582 -0.18642251619566688 -0.19194912640998568 -0.05721393335625806 0.3237969637137962 -0.09087233185371398 6.486482951920308 5.357690884964504 0.15710779784522175 0.04047986316802104 -0.06065645541965027 0.13706191300274834 2.505956492559716 0.8653629831692246 0.06678525619905411 -0.07326543819474338 0.018435427621804886 0.2435277268141601 8.48919174676372 0.8207394363308272 -0.10404443170936291 0.030195839433803245 0.34303760660572213 -0.3826265836543061 2.3057800831293327 -0.5574494109268815 -0.35658838175391006 0.015474487255751467 0.017039827875300874 -0.3492375240618161 -37.2072403526856 21.259622904919592 -12.691916426099285 17.422784629232442 -18.113823895866602 -37.028958754969935 3.6538515314069873 -6.731370846874653 3.0703674670764274 0.07363888412369911 0.136848923158435 -0.1951073418491761 -0.05064798712976018 -0.19934520742490458 -0.07356113736103732 0.15438073809738836 -0.1398404392931948 0.07311109192775696 -6.282317071684402 4.949519207051366 -0.5308746389702428 0.05149858580526477 -0.08542298815438096 -0.18336315173645654 -2.8747517030209084 0.8471284057977003 -0.07978666802651883 -0.15026933774301093 -0.3034161061173013 0.29199789745489113 -8.544243071474023 0.8383383792227171 -0.17048984597656922 0.37371825606846404 0.23369209432678306 -0.25884933522637965 -1.9978529572303554 -0.49489853850790466 -0.2602998966513611 0.22148265093770925 -0.05217565498716873 -0.10660591273067636 -17.47345268004289 -24.689926613660294 -17.159731846180446 -3.987254409136466 39.38612875452762 3.7512367954798522 -4.432176346765682 -7.314644242558001 -7.67468229672959 0.16676563197076688 0.027103124441536185 0.15313764366844604 17.519763070162867 -20.960359873982778 17.062944650546783 0.8709275596303752 39.2053746283324 -2.934609559916196 4.522152990023199 -6.3174699209083425 9.669047161728184
1.0911721736192703 73.13759326934814 0.4953698720782995 -8.456653579331425 13.23979492772998 -3.0467343722179483 -4.946420862489119 17.442100404205238 3.837870061138648 3.980094236452177 -11.777230299055871 0.8241243820339503 -7.12365251657058 19.1959819924905 -7.059289082700611 10.875434446523563 -30.349300124075093 -10.914990633328047 -0.08518027631500749 -0.04716736541740399 0.2706515819470443 -0.11210304107377303 0.20281152842868605 -0.019025331850511844 -0.023884451156020566 0.4363346022539377 -0.1730628129214674 47.58298413594656 26.56331089921139 24.857483106831754 -27.353958229606437 -30.118494371642022 64.26613782524207 -2.2701828447225187 -0.8708423423483086 -0.7647593126151084 0.2688934485660007 0.1081192798795102 -0.400391292035701 -0.45675886890425926 -0.16741324596187515 0.2520888886910951 -0.09701824812668253 0.47637122349742195 -0.46735057131624497 9.489704323370221 6.060248411860248 0.4457588492459537 -0.12428863216160468 -0.1607611486383852 0.0017061865907544744 3.4251366706335866 0.9443972364895578 0.2124789541675383 0.2046778509389656 0.2629116969569505 -0.39073804694350445 12.4691882261334 1.0563075381626894 0.2986151768218699 -0.00908938095970025 0.35131664965342385 -0.553360475491571 2.481095457754516 -0.6158421922452014 -0.41819017804337244 0.13081151617981976 -0.6740921799211858 0.0659006533200449 -64.90670028636255 42.44594421966661 -20.475390829702484 28.391064398464927 -34.57107420100582 -72.56308279875839 7.465410423202277 -24.150087244682705 8.847462489487569 0.23926328753369205 0.4751652682220916 0.19337919726745711 -0.12661367124375933 -0.4365686696351429 0.5260696008891388 -0.01544231066145836 -0.2880900153934389 0.5211124310164434 -8.786174348291398 6.388871010944364 -0.6191592629434475 0.12894092480130895 -0.012700523318227148 -0.4714621317531811 -3.693064074318854 1.2486757607112788 -0.04895588780416885 0.120893707978991 -0.4820556484341651 -0.0017509296659033468 -11.899500076709208 0.9724107237618361 -0.35474711216406274 0.669128873550408 -0.04764435808139418 -0.6997295084142402 -2.6839793968605745 -0.8671673270488716 -0.08444728495927406 0.20185567547085448 -0.4136503967619882 -0.38133175587848617 -38.540001505051855 -44.55113488036419 -35.60165070901778 -11.076489602479352 71.65270054466572 11.428236660772193 -4.232538028175848 -8.874098519703326 -7.58320557317561 -0.4293423828541223 0.16901876730365128 0.02645535036786923 32.33052626643152 -33.901879586884654 27.535579789826244 10.50639591057319 67.89871246361082 -11.608037975578194 6.134043483200358 -13.42886224791875 18.91758518946807
-0.28511006385087967 67.41033792495728 0.5455655045807362 -22.535420279607937 37.26317277179884 -23.163222239811535 -5.6168671087756925 18.194794080929814 3.1707864023578356 4.366582198184641 -11.72701645582523 0.416143842695866 -7.489274250388656 19.650517421376506 -10.369184240336804 11.015250126381018 -30.555868950238374 -19.314385029299963 0.21664258145668253 -0.11826782040823844 0.9820118353007584 0.1561477293800118 -0.3455184060174648 -0.546131947554729 0.19083428479096623 0.30802629704407475 0.1285399846929013 39.4210959079835 14.161851682661485 41.04433817556122 -26.76647487607342 -29.478382703006766 67.93896959857888 1.1390183542471937 17.415653911738946 5.16970316155142 0.2616202575952892 0.41245095151071054 0.029304126221146348 0.2270276973267018 -0.1669770209894935 0.13223187536206507 0.18336998192562654 -0.2001866547141384 -0.10639639134180093 7.982985936806564 5.474691171673177 1.674190783030961 -0.2866910005523499 -0.5750008626596986 0.1998683305462188 2.4912274030579953 1.375080577576824 0.6645805011717083 0.23908535576972795 -1.0402687598876186 -0.051159824430688006 11.76427940661588 0.6753101947492695 -0.022457501908443252 0.18594389602566352 0.5061038907281338 -0.1525698041524094 2.4801898173592547 -1.6772222130836831 0.3278569775668399 -0.197193484392939 0.3403407491006249 0.1966808466792178 -70.00451442623911 60.34891505321304 -14.981275453803438 30.251194701931613 -43.591247415167274 -92.52285581782743 13.78005606088882 -54.074378847653755 21.782159697182248 -0.33104427467085573 0.6601680922461743 0.16814933224707626 0.43769303616640337 -0.03183086932722794 -0.3966193734274143 0.10407276632224788 -0.1326372577614759 0.8635414037340939 -7.83981065765111 5.300852185125774 -0.6079856604306885 0.5786244914578019 -0.5953354030358844 0.007198165611547188 -3.01164726356477 1.3300536226905728 -0.6564313384399426 -0.0635315915342554 0.5461411789822791 0.13222856698918584 -9.962277428080586 0.8450911951560383 0.049819506527778785 0.29487527472531766 -0.03473508710665852 0.7622908395603836 -1.95908032118972 -2.2379511820292284 0.765179049083947 -0.9199401433407404 0.6302522372074887 0.35920455764943654 -54.43148162802953 -52.70598459838755 -48.577872905545206 -12.262049079174425 77.25290241875341 12.660029687959081 -1.0470503906815007 -5.273443916646983 -1.654540115345423 -0.18147161622318614 0.745723041789754 -0.6255124594494701 32.22641027781843 -33.796561484977644 26.10695864000616 18.56492715469468 73.17109940848376 -19.71464777504105 5.229765283791574 -18.138907765593476 22.105637456274053
